<mxfile host="app.diagrams.net" modified="2024-07-08T02:02:02.601Z" agent="Mozilla/5.0 (Windows NT 10.0; Win64; x64; rv:127.0) Gecko/20100101 Firefox/127.0" etag="2OZKc4R8U9LU7DwTVbAA" version="24.6.4" type="github" pages="2">
  <diagram name="UML diagram" id="K-gZvFvsqqv8aMTGwXmv">
    <mxGraphModel dx="1556" dy="1463" grid="1" gridSize="10" guides="1" tooltips="1" connect="1" arrows="1" fold="1" page="1" pageScale="1" pageWidth="1169" pageHeight="827" math="0" shadow="0">
      <root>
        <mxCell id="0" />
        <mxCell id="1" parent="0" />
        <mxCell id="Gz9vUPGkoFp9JuhfACCL-12" style="edgeStyle=orthogonalEdgeStyle;rounded=0;orthogonalLoop=1;jettySize=auto;html=1;entryX=0.5;entryY=1;entryDx=0;entryDy=0;" edge="1" parent="1" source="Gz9vUPGkoFp9JuhfACCL-4">
          <mxGeometry relative="1" as="geometry">
            <mxPoint x="750" y="260" as="targetPoint" />
          </mxGeometry>
        </mxCell>
        <mxCell id="Gz9vUPGkoFp9JuhfACCL-13" style="edgeStyle=orthogonalEdgeStyle;rounded=0;orthogonalLoop=1;jettySize=auto;html=1;entryX=0.5;entryY=1;entryDx=0;entryDy=0;" edge="1" parent="1" source="Gz9vUPGkoFp9JuhfACCL-2">
          <mxGeometry relative="1" as="geometry">
            <mxPoint x="750" y="422.5" as="targetPoint" />
          </mxGeometry>
        </mxCell>
        <mxCell id="Gz9vUPGkoFp9JuhfACCL-45" style="edgeStyle=orthogonalEdgeStyle;rounded=0;orthogonalLoop=1;jettySize=auto;html=1;entryX=0.5;entryY=1;entryDx=0;entryDy=0;endArrow=block;endFill=0;fontFamily=Courier New;" edge="1" parent="1" source="Gz9vUPGkoFp9JuhfACCL-26" target="Gz9vUPGkoFp9JuhfACCL-30">
          <mxGeometry relative="1" as="geometry" />
        </mxCell>
        <mxCell id="Gz9vUPGkoFp9JuhfACCL-26" value="&lt;b&gt;Sensor&lt;/b&gt;" style="swimlane;fontStyle=0;childLayout=stackLayout;horizontal=1;startSize=26;fillColor=none;horizontalStack=0;resizeParent=1;resizeParentMax=0;resizeLast=0;collapsible=1;marginBottom=0;whiteSpace=wrap;html=1;fontFamily=Courier New;" vertex="1" parent="1">
          <mxGeometry x="80" y="340" width="240" height="260" as="geometry" />
        </mxCell>
        <mxCell id="Gz9vUPGkoFp9JuhfACCL-27" value="- type: string" style="text;strokeColor=none;fillColor=none;align=left;verticalAlign=top;spacingLeft=4;spacingRight=4;overflow=hidden;rotatable=0;points=[[0,0.5],[1,0.5]];portConstraint=eastwest;whiteSpace=wrap;html=1;fontFamily=Courier New;" vertex="1" parent="Gz9vUPGkoFp9JuhfACCL-26">
          <mxGeometry y="26" width="240" height="26" as="geometry" />
        </mxCell>
        <mxCell id="Gz9vUPGkoFp9JuhfACCL-28" value="- id: int" style="text;strokeColor=none;fillColor=none;align=left;verticalAlign=top;spacingLeft=4;spacingRight=4;overflow=hidden;rotatable=0;points=[[0,0.5],[1,0.5]];portConstraint=eastwest;whiteSpace=wrap;html=1;fontFamily=Courier New;" vertex="1" parent="Gz9vUPGkoFp9JuhfACCL-26">
          <mxGeometry y="52" width="240" height="26" as="geometry" />
        </mxCell>
        <mxCell id="Gz9vUPGkoFp9JuhfACCL-43" value="- samplingInterval: int" style="text;strokeColor=none;fillColor=none;align=left;verticalAlign=top;spacingLeft=4;spacingRight=4;overflow=hidden;rotatable=0;points=[[0,0.5],[1,0.5]];portConstraint=eastwest;whiteSpace=wrap;html=1;fontFamily=Courier New;" vertex="1" parent="Gz9vUPGkoFp9JuhfACCL-26">
          <mxGeometry y="78" width="240" height="26" as="geometry" />
        </mxCell>
        <mxCell id="Gz9vUPGkoFp9JuhfACCL-51" value="- remainingTime: int" style="text;strokeColor=none;fillColor=none;align=left;verticalAlign=top;spacingLeft=4;spacingRight=4;overflow=hidden;rotatable=0;points=[[0,0.5],[1,0.5]];portConstraint=eastwest;whiteSpace=wrap;html=1;fontFamily=Courier New;" vertex="1" parent="Gz9vUPGkoFp9JuhfACCL-26">
          <mxGeometry y="104" width="240" height="26" as="geometry" />
        </mxCell>
        <mxCell id="Gz9vUPGkoFp9JuhfACCL-63" value="- nextID: static int" style="text;strokeColor=none;fillColor=none;align=left;verticalAlign=top;spacingLeft=4;spacingRight=4;overflow=hidden;rotatable=0;points=[[0,0.5],[1,0.5]];portConstraint=eastwest;whiteSpace=wrap;html=1;fontFamily=Courier New;" vertex="1" parent="Gz9vUPGkoFp9JuhfACCL-26">
          <mxGeometry y="130" width="240" height="26" as="geometry" />
        </mxCell>
        <mxCell id="Gz9vUPGkoFp9JuhfACCL-42" value="&lt;div&gt;+ getId()&lt;/div&gt;" style="text;strokeColor=none;fillColor=none;align=left;verticalAlign=top;spacingLeft=4;spacingRight=4;overflow=hidden;rotatable=0;points=[[0,0.5],[1,0.5]];portConstraint=eastwest;whiteSpace=wrap;html=1;fontFamily=Courier New;" vertex="1" parent="Gz9vUPGkoFp9JuhfACCL-26">
          <mxGeometry y="156" width="240" height="26" as="geometry" />
        </mxCell>
        <mxCell id="Gz9vUPGkoFp9JuhfACCL-65" value="+ getNextId()" style="text;strokeColor=none;fillColor=none;align=left;verticalAlign=top;spacingLeft=4;spacingRight=4;overflow=hidden;rotatable=0;points=[[0,0.5],[1,0.5]];portConstraint=eastwest;whiteSpace=wrap;html=1;fontFamily=Courier New;" vertex="1" parent="Gz9vUPGkoFp9JuhfACCL-26">
          <mxGeometry y="182" width="240" height="26" as="geometry" />
        </mxCell>
        <mxCell id="Gz9vUPGkoFp9JuhfACCL-66" value="+ streamData()" style="text;strokeColor=none;fillColor=none;align=left;verticalAlign=top;spacingLeft=4;spacingRight=4;overflow=hidden;rotatable=0;points=[[0,0.5],[1,0.5]];portConstraint=eastwest;whiteSpace=wrap;html=1;fontFamily=Courier New;" vertex="1" parent="Gz9vUPGkoFp9JuhfACCL-26">
          <mxGeometry y="208" width="240" height="26" as="geometry" />
        </mxCell>
        <mxCell id="Gz9vUPGkoFp9JuhfACCL-64" value="+ displaySensorInfo" style="text;strokeColor=none;fillColor=none;align=left;verticalAlign=top;spacingLeft=4;spacingRight=4;overflow=hidden;rotatable=0;points=[[0,0.5],[1,0.5]];portConstraint=eastwest;whiteSpace=wrap;html=1;fontFamily=Courier New;" vertex="1" parent="Gz9vUPGkoFp9JuhfACCL-26">
          <mxGeometry y="234" width="240" height="26" as="geometry" />
        </mxCell>
        <mxCell id="Gz9vUPGkoFp9JuhfACCL-30" value="&lt;b&gt;SensorTypes&lt;/b&gt;" style="swimlane;fontStyle=0;childLayout=stackLayout;horizontal=1;startSize=26;fillColor=none;horizontalStack=0;resizeParent=1;resizeParentMax=0;resizeLast=0;collapsible=1;marginBottom=0;whiteSpace=wrap;html=1;fontFamily=Courier New;" vertex="1" parent="1">
          <mxGeometry x="80" y="180" width="240" height="130" as="geometry" />
        </mxCell>
        <mxCell id="Gz9vUPGkoFp9JuhfACCL-29" value="+ PressureSensor: Sensor" style="text;strokeColor=none;fillColor=none;align=left;verticalAlign=top;spacingLeft=4;spacingRight=4;overflow=hidden;rotatable=0;points=[[0,0.5],[1,0.5]];portConstraint=eastwest;whiteSpace=wrap;html=1;fontFamily=Courier New;" vertex="1" parent="Gz9vUPGkoFp9JuhfACCL-30">
          <mxGeometry y="26" width="240" height="26" as="geometry" />
        </mxCell>
        <mxCell id="Gz9vUPGkoFp9JuhfACCL-48" value="+ TemperatureSensor: Sensor" style="text;strokeColor=none;fillColor=none;align=left;verticalAlign=top;spacingLeft=4;spacingRight=4;overflow=hidden;rotatable=0;points=[[0,0.5],[1,0.5]];portConstraint=eastwest;whiteSpace=wrap;html=1;fontFamily=Courier New;" vertex="1" parent="Gz9vUPGkoFp9JuhfACCL-30">
          <mxGeometry y="52" width="240" height="26" as="geometry" />
        </mxCell>
        <mxCell id="Gz9vUPGkoFp9JuhfACCL-67" value="+ Conductivity: Sensor" style="text;strokeColor=none;fillColor=none;align=left;verticalAlign=top;spacingLeft=4;spacingRight=4;overflow=hidden;rotatable=0;points=[[0,0.5],[1,0.5]];portConstraint=eastwest;whiteSpace=wrap;html=1;fontFamily=Courier New;" vertex="1" parent="Gz9vUPGkoFp9JuhfACCL-30">
          <mxGeometry y="78" width="240" height="26" as="geometry" />
        </mxCell>
        <mxCell id="Gz9vUPGkoFp9JuhfACCL-49" value="+ displaySensorInfo()" style="text;strokeColor=none;fillColor=none;align=left;verticalAlign=top;spacingLeft=4;spacingRight=4;overflow=hidden;rotatable=0;points=[[0,0.5],[1,0.5]];portConstraint=eastwest;whiteSpace=wrap;html=1;fontFamily=Courier New;" vertex="1" parent="Gz9vUPGkoFp9JuhfACCL-30">
          <mxGeometry y="104" width="240" height="26" as="geometry" />
        </mxCell>
        <mxCell id="Gz9vUPGkoFp9JuhfACCL-34" value="&lt;b&gt;SensorPool&lt;/b&gt;" style="swimlane;fontStyle=0;childLayout=stackLayout;horizontal=1;startSize=26;fillColor=none;horizontalStack=0;resizeParent=1;resizeParentMax=0;resizeLast=0;collapsible=1;marginBottom=0;whiteSpace=wrap;html=1;fontFamily=Courier New;" vertex="1" parent="1">
          <mxGeometry x="440" y="180" width="200" height="156" as="geometry">
            <mxRectangle x="620" y="70" width="100" height="30" as="alternateBounds" />
          </mxGeometry>
        </mxCell>
        <mxCell id="Gz9vUPGkoFp9JuhfACCL-35" value="- sensors: map&amp;lt;&amp;gt;" style="text;strokeColor=none;fillColor=none;align=left;verticalAlign=top;spacingLeft=4;spacingRight=4;overflow=hidden;rotatable=0;points=[[0,0.5],[1,0.5]];portConstraint=eastwest;whiteSpace=wrap;html=1;fontFamily=Courier New;" vertex="1" parent="Gz9vUPGkoFp9JuhfACCL-34">
          <mxGeometry y="26" width="200" height="26" as="geometry" />
        </mxCell>
        <mxCell id="Gz9vUPGkoFp9JuhfACCL-52" value="+ addSensors()" style="text;strokeColor=none;fillColor=none;align=left;verticalAlign=top;spacingLeft=4;spacingRight=4;overflow=hidden;rotatable=0;points=[[0,0.5],[1,0.5]];portConstraint=eastwest;whiteSpace=wrap;html=1;fontFamily=Courier New;" vertex="1" parent="Gz9vUPGkoFp9JuhfACCL-34">
          <mxGeometry y="52" width="200" height="26" as="geometry" />
        </mxCell>
        <mxCell id="Gz9vUPGkoFp9JuhfACCL-53" value="+removeSensors()" style="text;strokeColor=none;fillColor=none;align=left;verticalAlign=top;spacingLeft=4;spacingRight=4;overflow=hidden;rotatable=0;points=[[0,0.5],[1,0.5]];portConstraint=eastwest;whiteSpace=wrap;html=1;fontFamily=Courier New;" vertex="1" parent="Gz9vUPGkoFp9JuhfACCL-34">
          <mxGeometry y="78" width="200" height="26" as="geometry" />
        </mxCell>
        <mxCell id="Gz9vUPGkoFp9JuhfACCL-54" value="+ listSensors()" style="text;strokeColor=none;fillColor=none;align=left;verticalAlign=top;spacingLeft=4;spacingRight=4;overflow=hidden;rotatable=0;points=[[0,0.5],[1,0.5]];portConstraint=eastwest;whiteSpace=wrap;html=1;fontFamily=Courier New;" vertex="1" parent="Gz9vUPGkoFp9JuhfACCL-34">
          <mxGeometry y="104" width="200" height="26" as="geometry" />
        </mxCell>
        <mxCell id="Gz9vUPGkoFp9JuhfACCL-55" value="+ getSensor()" style="text;strokeColor=none;fillColor=none;align=left;verticalAlign=top;spacingLeft=4;spacingRight=4;overflow=hidden;rotatable=0;points=[[0,0.5],[1,0.5]];portConstraint=eastwest;whiteSpace=wrap;html=1;fontFamily=Courier New;" vertex="1" parent="Gz9vUPGkoFp9JuhfACCL-34">
          <mxGeometry y="130" width="200" height="26" as="geometry" />
        </mxCell>
        <mxCell id="Gz9vUPGkoFp9JuhfACCL-68" style="edgeStyle=orthogonalEdgeStyle;rounded=0;orthogonalLoop=1;jettySize=auto;html=1;entryX=0.002;entryY=0.122;entryDx=0;entryDy=0;entryPerimeter=0;endArrow=open;endFill=0;startArrow=diamondThin;startFill=0;" edge="1" parent="1" source="Gz9vUPGkoFp9JuhfACCL-30" target="Gz9vUPGkoFp9JuhfACCL-53">
          <mxGeometry relative="1" as="geometry" />
        </mxCell>
        <mxCell id="Gz9vUPGkoFp9JuhfACCL-89" style="edgeStyle=orthogonalEdgeStyle;rounded=0;orthogonalLoop=1;jettySize=auto;html=1;entryX=0.5;entryY=0;entryDx=0;entryDy=0;dashed=1;dashPattern=8 8;endArrow=openThin;endFill=0;" edge="1" parent="1" source="Gz9vUPGkoFp9JuhfACCL-79" target="Gz9vUPGkoFp9JuhfACCL-34">
          <mxGeometry relative="1" as="geometry" />
        </mxCell>
        <mxCell id="Gz9vUPGkoFp9JuhfACCL-79" value="&lt;b&gt;CommandProcessor&lt;/b&gt;" style="swimlane;fontStyle=0;childLayout=stackLayout;horizontal=1;startSize=26;fillColor=none;horizontalStack=0;resizeParent=1;resizeParentMax=0;resizeLast=0;collapsible=1;marginBottom=0;whiteSpace=wrap;html=1;fontFamily=Courier New;" vertex="1" parent="1">
          <mxGeometry x="680" y="80" width="240" height="52" as="geometry" />
        </mxCell>
        <mxCell id="Gz9vUPGkoFp9JuhfACCL-80" value="+ processCommand()" style="text;strokeColor=none;fillColor=none;align=left;verticalAlign=top;spacingLeft=4;spacingRight=4;overflow=hidden;rotatable=0;points=[[0,0.5],[1,0.5]];portConstraint=eastwest;whiteSpace=wrap;html=1;fontFamily=Courier New;" vertex="1" parent="Gz9vUPGkoFp9JuhfACCL-79">
          <mxGeometry y="26" width="240" height="26" as="geometry" />
        </mxCell>
      </root>
    </mxGraphModel>
  </diagram>
  <diagram id="ye2gEQYAsqkLRM7-6e8d" name="Code Flow">
    <mxGraphModel dx="1556" dy="1463" grid="1" gridSize="10" guides="1" tooltips="1" connect="1" arrows="1" fold="1" page="1" pageScale="1" pageWidth="1169" pageHeight="827" math="0" shadow="0">
      <root>
        <mxCell id="0" />
        <mxCell id="1" parent="0" />
        <mxCell id="W97qDIWZKPjIrWZEV_C--14" value="" style="rounded=0;whiteSpace=wrap;html=1;fontFamily=Courier New;fillColor=none;" vertex="1" parent="1">
          <mxGeometry x="490" y="40" width="460" height="320" as="geometry" />
        </mxCell>
        <mxCell id="W97qDIWZKPjIrWZEV_C--16" style="edgeStyle=orthogonalEdgeStyle;rounded=0;orthogonalLoop=1;jettySize=auto;html=1;entryX=0;entryY=0.5;entryDx=0;entryDy=0;exitX=1;exitY=0.25;exitDx=0;exitDy=0;" edge="1" parent="1" source="W97qDIWZKPjIrWZEV_C--1" target="W97qDIWZKPjIrWZEV_C--14">
          <mxGeometry relative="1" as="geometry" />
        </mxCell>
        <mxCell id="W97qDIWZKPjIrWZEV_C--18" style="edgeStyle=orthogonalEdgeStyle;rounded=0;orthogonalLoop=1;jettySize=auto;html=1;entryX=0;entryY=0.5;entryDx=0;entryDy=0;exitX=1;exitY=0.75;exitDx=0;exitDy=0;" edge="1" parent="1" source="W97qDIWZKPjIrWZEV_C--1" target="W97qDIWZKPjIrWZEV_C--17">
          <mxGeometry relative="1" as="geometry" />
        </mxCell>
        <mxCell id="W97qDIWZKPjIrWZEV_C--1" value="&lt;div&gt;make threads&lt;/div&gt;&lt;div&gt;- steramThread&lt;/div&gt;&lt;div&gt;- commandThread&lt;br&gt;&lt;/div&gt;" style="rounded=0;whiteSpace=wrap;html=1;align=left;fontFamily=Courier New;" vertex="1" parent="1">
          <mxGeometry x="70" y="330" width="160" height="80" as="geometry" />
        </mxCell>
        <mxCell id="W97qDIWZKPjIrWZEV_C--13" style="edgeStyle=orthogonalEdgeStyle;rounded=0;orthogonalLoop=1;jettySize=auto;html=1;entryX=0;entryY=0.5;entryDx=0;entryDy=0;" edge="1" parent="1" source="W97qDIWZKPjIrWZEV_C--4" target="W97qDIWZKPjIrWZEV_C--5">
          <mxGeometry relative="1" as="geometry" />
        </mxCell>
        <mxCell id="W97qDIWZKPjIrWZEV_C--4" value="WaitForCommand" style="rhombus;whiteSpace=wrap;html=1;fontFamily=Courier New;" vertex="1" parent="1">
          <mxGeometry x="510" y="80" width="150" height="80" as="geometry" />
        </mxCell>
        <mxCell id="W97qDIWZKPjIrWZEV_C--8" style="edgeStyle=orthogonalEdgeStyle;rounded=0;orthogonalLoop=1;jettySize=auto;html=1;entryX=0.5;entryY=0;entryDx=0;entryDy=0;" edge="1" parent="1" source="W97qDIWZKPjIrWZEV_C--5" target="W97qDIWZKPjIrWZEV_C--7">
          <mxGeometry relative="1" as="geometry" />
        </mxCell>
        <mxCell id="W97qDIWZKPjIrWZEV_C--5" value="&amp;nbsp;get Number of Sensors" style="rounded=0;whiteSpace=wrap;html=1;align=left;fontFamily=Courier New;" vertex="1" parent="1">
          <mxGeometry x="710" y="100" width="180" height="40" as="geometry" />
        </mxCell>
        <mxCell id="W97qDIWZKPjIrWZEV_C--11" style="edgeStyle=orthogonalEdgeStyle;rounded=0;orthogonalLoop=1;jettySize=auto;html=1;entryX=1;entryY=0.5;entryDx=0;entryDy=0;" edge="1" parent="1" source="W97qDIWZKPjIrWZEV_C--6" target="W97qDIWZKPjIrWZEV_C--7">
          <mxGeometry relative="1" as="geometry">
            <Array as="points">
              <mxPoint x="910" y="320" />
              <mxPoint x="910" y="220" />
            </Array>
          </mxGeometry>
        </mxCell>
        <mxCell id="W97qDIWZKPjIrWZEV_C--6" value="call streamData for nth sensor" style="rounded=0;whiteSpace=wrap;html=1;align=left;fontFamily=Courier New;" vertex="1" parent="1">
          <mxGeometry x="710" y="300" width="180" height="40" as="geometry" />
        </mxCell>
        <mxCell id="W97qDIWZKPjIrWZEV_C--9" style="edgeStyle=orthogonalEdgeStyle;rounded=0;orthogonalLoop=1;jettySize=auto;html=1;entryX=0.5;entryY=0;entryDx=0;entryDy=0;" edge="1" parent="1" source="W97qDIWZKPjIrWZEV_C--7" target="W97qDIWZKPjIrWZEV_C--6">
          <mxGeometry relative="1" as="geometry" />
        </mxCell>
        <mxCell id="W97qDIWZKPjIrWZEV_C--24" value="yes" style="edgeLabel;html=1;align=center;verticalAlign=middle;resizable=0;points=[];" vertex="1" connectable="0" parent="W97qDIWZKPjIrWZEV_C--9">
          <mxGeometry x="-0.05" relative="1" as="geometry">
            <mxPoint as="offset" />
          </mxGeometry>
        </mxCell>
        <mxCell id="W97qDIWZKPjIrWZEV_C--12" style="edgeStyle=orthogonalEdgeStyle;rounded=0;orthogonalLoop=1;jettySize=auto;html=1;entryX=0.5;entryY=1;entryDx=0;entryDy=0;" edge="1" parent="1" source="W97qDIWZKPjIrWZEV_C--7" target="W97qDIWZKPjIrWZEV_C--4">
          <mxGeometry relative="1" as="geometry" />
        </mxCell>
        <mxCell id="W97qDIWZKPjIrWZEV_C--25" value="no" style="edgeLabel;html=1;align=center;verticalAlign=middle;resizable=0;points=[];" vertex="1" connectable="0" parent="W97qDIWZKPjIrWZEV_C--12">
          <mxGeometry x="-0.58" y="-3" relative="1" as="geometry">
            <mxPoint as="offset" />
          </mxGeometry>
        </mxCell>
        <mxCell id="W97qDIWZKPjIrWZEV_C--7" value="n &amp;lt; number of sensors?" style="rhombus;whiteSpace=wrap;html=1;fontFamily=Courier New;" vertex="1" parent="1">
          <mxGeometry x="725" y="180" width="150" height="80" as="geometry" />
        </mxCell>
        <mxCell id="W97qDIWZKPjIrWZEV_C--15" value="&lt;div&gt;sensorStream()&lt;/div&gt;" style="text;html=1;align=center;verticalAlign=middle;whiteSpace=wrap;rounded=0;fontFamily=Courier New;fontStyle=1" vertex="1" parent="1">
          <mxGeometry x="510" y="40" width="130" height="30" as="geometry" />
        </mxCell>
        <mxCell id="W97qDIWZKPjIrWZEV_C--17" value="" style="rounded=0;whiteSpace=wrap;html=1;fontFamily=Courier New;fillColor=none;" vertex="1" parent="1">
          <mxGeometry x="490" y="380" width="590" height="393" as="geometry" />
        </mxCell>
        <mxCell id="W97qDIWZKPjIrWZEV_C--19" value="get one char from console" style="rounded=0;whiteSpace=wrap;html=1;align=left;fontFamily=Courier New;" vertex="1" parent="1">
          <mxGeometry x="630" y="430" width="120" height="40" as="geometry" />
        </mxCell>
        <mxCell id="W97qDIWZKPjIrWZEV_C--23" style="edgeStyle=orthogonalEdgeStyle;rounded=0;orthogonalLoop=1;jettySize=auto;html=1;entryX=0.5;entryY=0;entryDx=0;entryDy=0;exitX=0.5;exitY=0;exitDx=0;exitDy=0;" edge="1" parent="1" source="W97qDIWZKPjIrWZEV_C--20" target="W97qDIWZKPjIrWZEV_C--19">
          <mxGeometry relative="1" as="geometry" />
        </mxCell>
        <mxCell id="W97qDIWZKPjIrWZEV_C--27" style="edgeStyle=orthogonalEdgeStyle;rounded=0;orthogonalLoop=1;jettySize=auto;html=1;entryX=0.5;entryY=0;entryDx=0;entryDy=0;" edge="1" parent="1" source="W97qDIWZKPjIrWZEV_C--20" target="W97qDIWZKPjIrWZEV_C--26">
          <mxGeometry relative="1" as="geometry">
            <mxPoint x="647.5" y="520" as="targetPoint" />
          </mxGeometry>
        </mxCell>
        <mxCell id="W97qDIWZKPjIrWZEV_C--20" value="input = &quot;c:/&quot;" style="rhombus;whiteSpace=wrap;html=1;fontFamily=Courier New;" vertex="1" parent="1">
          <mxGeometry x="920" y="420" width="125" height="60" as="geometry" />
        </mxCell>
        <mxCell id="W97qDIWZKPjIrWZEV_C--21" style="edgeStyle=orthogonalEdgeStyle;rounded=0;orthogonalLoop=1;jettySize=auto;html=1;entryX=0.064;entryY=0.5;entryDx=0;entryDy=0;entryPerimeter=0;" edge="1" parent="1" source="W97qDIWZKPjIrWZEV_C--19" target="W97qDIWZKPjIrWZEV_C--20">
          <mxGeometry relative="1" as="geometry" />
        </mxCell>
        <mxCell id="W97qDIWZKPjIrWZEV_C--26" value="" style="rounded=0;whiteSpace=wrap;html=1;fontFamily=Courier New;fillColor=none;" vertex="1" parent="1">
          <mxGeometry x="500" y="520" width="570" height="243" as="geometry" />
        </mxCell>
        <mxCell id="W97qDIWZKPjIrWZEV_C--49" style="edgeStyle=orthogonalEdgeStyle;rounded=0;orthogonalLoop=1;jettySize=auto;html=1;entryX=0;entryY=0.5;entryDx=0;entryDy=0;" edge="1" parent="1" source="W97qDIWZKPjIrWZEV_C--28" target="W97qDIWZKPjIrWZEV_C--29">
          <mxGeometry relative="1" as="geometry" />
        </mxCell>
        <mxCell id="W97qDIWZKPjIrWZEV_C--28" value="raise WaitForCommand flag" style="rounded=0;whiteSpace=wrap;html=1;align=left;fontFamily=Courier New;" vertex="1" parent="1">
          <mxGeometry x="650" y="530" width="120" height="40" as="geometry" />
        </mxCell>
        <mxCell id="W97qDIWZKPjIrWZEV_C--50" style="edgeStyle=orthogonalEdgeStyle;rounded=0;orthogonalLoop=1;jettySize=auto;html=1;entryX=0;entryY=0.5;entryDx=0;entryDy=0;" edge="1" parent="1" source="W97qDIWZKPjIrWZEV_C--29" target="W97qDIWZKPjIrWZEV_C--30">
          <mxGeometry relative="1" as="geometry" />
        </mxCell>
        <mxCell id="W97qDIWZKPjIrWZEV_C--29" value="read a line from console" style="rounded=0;whiteSpace=wrap;html=1;align=left;fontFamily=Courier New;" vertex="1" parent="1">
          <mxGeometry x="790" y="530" width="120" height="40" as="geometry" />
        </mxCell>
        <mxCell id="W97qDIWZKPjIrWZEV_C--32" style="edgeStyle=orthogonalEdgeStyle;rounded=0;orthogonalLoop=1;jettySize=auto;html=1;entryX=0.5;entryY=0;entryDx=0;entryDy=0;" edge="1" parent="1" source="W97qDIWZKPjIrWZEV_C--30" target="W97qDIWZKPjIrWZEV_C--36">
          <mxGeometry relative="1" as="geometry">
            <mxPoint x="950" y="590" as="targetPoint" />
          </mxGeometry>
        </mxCell>
        <mxCell id="W97qDIWZKPjIrWZEV_C--30" value="parse received command" style="rounded=0;whiteSpace=wrap;html=1;align=left;fontFamily=Courier New;" vertex="1" parent="1">
          <mxGeometry x="930" y="530" width="120" height="40" as="geometry" />
        </mxCell>
        <mxCell id="W97qDIWZKPjIrWZEV_C--34" style="edgeStyle=orthogonalEdgeStyle;rounded=0;orthogonalLoop=1;jettySize=auto;html=1;exitX=0;exitY=0.5;exitDx=0;exitDy=0;entryX=0.25;entryY=0;entryDx=0;entryDy=0;" edge="1" parent="1" source="W97qDIWZKPjIrWZEV_C--40" target="W97qDIWZKPjIrWZEV_C--33">
          <mxGeometry relative="1" as="geometry">
            <mxPoint x="750" y="810" as="sourcePoint" />
          </mxGeometry>
        </mxCell>
        <mxCell id="W97qDIWZKPjIrWZEV_C--51" value="no" style="edgeLabel;html=1;align=center;verticalAlign=middle;resizable=0;points=[];" vertex="1" connectable="0" parent="W97qDIWZKPjIrWZEV_C--34">
          <mxGeometry x="0.1412" y="1" relative="1" as="geometry">
            <mxPoint x="29" y="-14" as="offset" />
          </mxGeometry>
        </mxCell>
        <mxCell id="W97qDIWZKPjIrWZEV_C--33" value="print error" style="rounded=0;whiteSpace=wrap;html=1;align=left;fontFamily=Courier New;" vertex="1" parent="1">
          <mxGeometry x="510" y="710" width="40" height="40" as="geometry" />
        </mxCell>
        <mxCell id="W97qDIWZKPjIrWZEV_C--44" style="edgeStyle=orthogonalEdgeStyle;rounded=0;orthogonalLoop=1;jettySize=auto;html=1;entryX=0.5;entryY=0;entryDx=0;entryDy=0;" edge="1" parent="1" source="W97qDIWZKPjIrWZEV_C--36" target="W97qDIWZKPjIrWZEV_C--37">
          <mxGeometry relative="1" as="geometry" />
        </mxCell>
        <mxCell id="W97qDIWZKPjIrWZEV_C--58" value="yes" style="edgeLabel;html=1;align=center;verticalAlign=middle;resizable=0;points=[];" vertex="1" connectable="0" parent="W97qDIWZKPjIrWZEV_C--44">
          <mxGeometry x="-0.2" y="-1" relative="1" as="geometry">
            <mxPoint as="offset" />
          </mxGeometry>
        </mxCell>
        <mxCell id="W97qDIWZKPjIrWZEV_C--48" style="edgeStyle=orthogonalEdgeStyle;rounded=0;orthogonalLoop=1;jettySize=auto;html=1;entryX=1;entryY=0.5;entryDx=0;entryDy=0;" edge="1" parent="1" source="W97qDIWZKPjIrWZEV_C--36" target="W97qDIWZKPjIrWZEV_C--38">
          <mxGeometry relative="1" as="geometry" />
        </mxCell>
        <mxCell id="W97qDIWZKPjIrWZEV_C--53" value="no" style="edgeLabel;html=1;align=center;verticalAlign=middle;resizable=0;points=[];" vertex="1" connectable="0" parent="W97qDIWZKPjIrWZEV_C--48">
          <mxGeometry x="0.28" relative="1" as="geometry">
            <mxPoint as="offset" />
          </mxGeometry>
        </mxCell>
        <mxCell id="W97qDIWZKPjIrWZEV_C--36" value="command is add?" style="rhombus;whiteSpace=wrap;html=1;fontFamily=Courier New;" vertex="1" parent="1">
          <mxGeometry x="920" y="610" width="140" height="60" as="geometry" />
        </mxCell>
        <mxCell id="W97qDIWZKPjIrWZEV_C--37" value="addSensor()" style="rounded=0;whiteSpace=wrap;html=1;align=left;fontFamily=Courier New;" vertex="1" parent="1">
          <mxGeometry x="930" y="710" width="120" height="40" as="geometry" />
        </mxCell>
        <mxCell id="W97qDIWZKPjIrWZEV_C--47" style="edgeStyle=orthogonalEdgeStyle;rounded=0;orthogonalLoop=1;jettySize=auto;html=1;entryX=1;entryY=0.5;entryDx=0;entryDy=0;" edge="1" parent="1" source="W97qDIWZKPjIrWZEV_C--38" target="W97qDIWZKPjIrWZEV_C--40">
          <mxGeometry relative="1" as="geometry" />
        </mxCell>
        <mxCell id="W97qDIWZKPjIrWZEV_C--52" value="no" style="edgeLabel;html=1;align=center;verticalAlign=middle;resizable=0;points=[];" vertex="1" connectable="0" parent="W97qDIWZKPjIrWZEV_C--47">
          <mxGeometry x="0.32" y="-1" relative="1" as="geometry">
            <mxPoint as="offset" />
          </mxGeometry>
        </mxCell>
        <mxCell id="W97qDIWZKPjIrWZEV_C--38" value="command is list?" style="rhombus;whiteSpace=wrap;html=1;fontFamily=Courier New;" vertex="1" parent="1">
          <mxGeometry x="750" y="610" width="140" height="60" as="geometry" />
        </mxCell>
        <mxCell id="W97qDIWZKPjIrWZEV_C--39" value="listSensors()" style="rounded=0;whiteSpace=wrap;html=1;align=left;fontFamily=Courier New;" vertex="1" parent="1">
          <mxGeometry x="747.5" y="710" width="130" height="40" as="geometry" />
        </mxCell>
        <mxCell id="W97qDIWZKPjIrWZEV_C--42" style="edgeStyle=orthogonalEdgeStyle;rounded=0;orthogonalLoop=1;jettySize=auto;html=1;entryX=0.5;entryY=0;entryDx=0;entryDy=0;" edge="1" parent="1" source="W97qDIWZKPjIrWZEV_C--40" target="W97qDIWZKPjIrWZEV_C--41">
          <mxGeometry relative="1" as="geometry" />
        </mxCell>
        <mxCell id="W97qDIWZKPjIrWZEV_C--56" value="yes" style="edgeLabel;html=1;align=center;verticalAlign=middle;resizable=0;points=[];" vertex="1" connectable="0" parent="W97qDIWZKPjIrWZEV_C--42">
          <mxGeometry x="-0.15" relative="1" as="geometry">
            <mxPoint as="offset" />
          </mxGeometry>
        </mxCell>
        <mxCell id="W97qDIWZKPjIrWZEV_C--40" value="command is remove?" style="rhombus;whiteSpace=wrap;html=1;fontFamily=Courier New;" vertex="1" parent="1">
          <mxGeometry x="580" y="610" width="140" height="60" as="geometry" />
        </mxCell>
        <mxCell id="W97qDIWZKPjIrWZEV_C--41" value="removeSensor()" style="rounded=0;whiteSpace=wrap;html=1;align=left;fontFamily=Courier New;" vertex="1" parent="1">
          <mxGeometry x="590" y="710" width="120" height="40" as="geometry" />
        </mxCell>
        <mxCell id="W97qDIWZKPjIrWZEV_C--43" style="edgeStyle=orthogonalEdgeStyle;rounded=0;orthogonalLoop=1;jettySize=auto;html=1;entryX=0.558;entryY=0.025;entryDx=0;entryDy=0;entryPerimeter=0;" edge="1" parent="1" source="W97qDIWZKPjIrWZEV_C--38" target="W97qDIWZKPjIrWZEV_C--39">
          <mxGeometry relative="1" as="geometry" />
        </mxCell>
        <mxCell id="W97qDIWZKPjIrWZEV_C--57" value="yes" style="edgeLabel;html=1;align=center;verticalAlign=middle;resizable=0;points=[];" vertex="1" connectable="0" parent="W97qDIWZKPjIrWZEV_C--43">
          <mxGeometry x="-0.1215" y="-1" relative="1" as="geometry">
            <mxPoint as="offset" />
          </mxGeometry>
        </mxCell>
        <mxCell id="W97qDIWZKPjIrWZEV_C--54" value="processCommand()" style="text;html=1;align=center;verticalAlign=middle;whiteSpace=wrap;rounded=0;fontFamily=Courier New;fontStyle=1" vertex="1" parent="1">
          <mxGeometry x="510" y="530" width="130" height="30" as="geometry" />
        </mxCell>
        <mxCell id="W97qDIWZKPjIrWZEV_C--55" value="acceptCommands()" style="text;html=1;align=center;verticalAlign=middle;whiteSpace=wrap;rounded=0;fontFamily=Courier New;fontStyle=1" vertex="1" parent="1">
          <mxGeometry x="500" y="390" width="130" height="30" as="geometry" />
        </mxCell>
      </root>
    </mxGraphModel>
  </diagram>
</mxfile>
